<?xml version="1.0" standalone="no"?>
<!DOCTYPE svg PUBLIC "-//W3C//DTD SVG 20010904//EN"
 "http://www.w3.org/TR/2001/REC-SVG-20010904/DTD/svg10.dtd">
<svg version="1.0" xmlns="http://www.w3.org/2000/svg"
 width="3000.000000pt" height="3000.000000pt" viewBox="0 0 3000.000000 3000.000000"
 preserveAspectRatio="xMidYMid meet">

<g transform="translate(0.000000,3000.000000) scale(0.100000,-0.100000)"
fill="#000000" stroke="none">
<path d="M3748 28630 c-1097 -80 -2013 -834 -2297 -1890 -43 -161 -68 -318
-80 -505 -15 -219 -15 -5247 -1 -5364 35 -274 194 -514 431 -649 144 -81 345
-122 508 -102 361 45 633 281 734 639 l22 76 5 2700 5 2700 22 70 c98 304 281
489 583 591 l85 29 2700 5 2700 5 80 23 c249 70 455 243 561 469 123 261 99
583 -61 824 -119 178 -288 298 -512 362 l-78 22 -2650 1 c-1457 1 -2698 -2
-2757 -6z"/>
<path d="M20862 28629 c-245 -32 -469 -171 -607 -378 -160 -241 -184 -563 -61
-824 106 -226 312 -399 561 -469 l80 -23 2700 -5 2700 -5 85 -29 c302 -102
485 -287 583 -591 l22 -70 5 -2700 5 -2700 22 -76 c120 -423 498 -685 918
-638 396 44 704 350 755 750 14 117 14 5145 -1 5364 -12 187 -37 344 -80 505
-240 892 -947 1591 -1836 1815 -173 43 -289 62 -473 75 -175 12 -5283 12
-5378 -1z"/>
<path d="M14754 25219 c-886 -42 -1734 -310 -2494 -788 -464 -291 -948 -731
-1286 -1166 -463 -597 -774 -1244 -949 -1970 -137 -570 -172 -1208 -99 -1810
93 -772 370 -1522 809 -2190 291 -442 659 -842 1105 -1201 542 -437 1315 -809
1990 -958 800 -178 1540 -178 2340 0 675 149 1448 521 1990 958 628 505 1099
1089 1436 1781 289 594 452 1199 504 1869 22 280 8 758 -30 1041 -158 1178
-710 2247 -1580 3063 -384 360 -780 632 -1255 863 -640 311 -1282 473 -2015
509 -223 11 -230 11 -466 -1z"/>
<path d="M14310 13284 c-36 -2 -168 -8 -295 -14 -1285 -60 -2598 -277 -3600
-595 -99 -32 -209 -67 -245 -77 -121 -37 -551 -199 -769 -289 -254 -106 -680
-313 -941 -459 -1239 -691 -2211 -1623 -2875 -2755 -403 -688 -682 -1461 -775
-2149 -63 -466 -42 -809 67 -1121 201 -571 691 -931 1408 -1035 140 -20 166
-20 8715 -20 8549 0 8575 0 8715 20 717 104 1207 464 1408 1035 109 312 130
655 67 1121 -93 688 -372 1461 -775 2149 -899 1535 -2353 2688 -4276 3393
-464 170 -950 313 -1414 417 -891 200 -1648 302 -2715 366 -163 10 -1556 20
-1700 13z"/>
<path d="M2112 9879 c-83 -10 -236 -58 -302 -96 -246 -141 -405 -377 -440
-655 -14 -116 -14 -5145 1 -5363 28 -429 140 -791 359 -1159 381 -642 1045
-1091 1789 -1210 217 -35 395 -37 3036 -34 l2600 3 78 22 c368 105 606 378
647 744 11 99 1 222 -27 319 -81 284 -311 508 -609 592 l-79 23 -2700 5 -2700
5 -85 29 c-302 102 -485 287 -583 591 l-22 70 -5 2700 -5 2700 -23 80 c-70
248 -244 456 -467 560 -90 42 -159 61 -265 74 -93 12 -94 12 -198 0z"/>
<path d="M27680 9879 c-343 -43 -625 -291 -722 -634 l-23 -80 -5 -2700 -5
-2700 -22 -70 c-98 -304 -281 -489 -583 -591 l-85 -29 -2700 -5 -2700 -5 -79
-23 c-483 -137 -747 -614 -600 -1084 87 -279 306 -484 611 -571 l78 -22 2600
-3 c2641 -3 2819 -1 3036 34 744 119 1408 568 1789 1210 219 368 331 730 359
1159 15 218 15 5247 1 5363 -35 278 -194 514 -440 655 -71 40 -217 85 -315 97
-100 11 -103 11 -195 -1z"/>
</g>
</svg>
